<svg xmlns="http://www.w3.org/2000/svg" xmlns:xlink="http://www.w3.org/1999/xlink" viewBox="0 0 177.65 184.21"><defs><style>.cls-1,.cls-10,.cls-12{fill:none;}.cls-2{fill:#fff;}.cls-3{clip-path:url(#clip-path);}.cls-4{fill:#ebb294;}.cls-5{fill:#f0c8aa;}.cls-6{fill:url(#linear-gradient);}.cls-7{fill:url(#linear-gradient-2);}.cls-8{fill:#e5a589;opacity:0.45;}.cls-9{fill:#eabea0;}.cls-10{stroke:#df8d6d;stroke-width:0.96px;}.cls-10,.cls-12{stroke-linecap:round;stroke-linejoin:round;}.cls-11{fill:#3b3b3b;}.cls-12{stroke:#dd9226;stroke-width:1.02px;}.cls-13{fill:#ebb391;}.cls-14{fill:#bc9158;}.cls-15{fill:#9b7242;}.cls-16{fill:#d1a674;}.cls-17{fill:#b94949;opacity:0.2;}.cls-18{fill:#e8ac46;}.cls-19{fill:#e29017;}</style><clipPath id="clip-path"><circle class="cls-1" cx="88.82" cy="88.82" r="88.82" transform="matrix(0.16, -0.99, 0.99, 0.16, -13.23, 162.06)"/></clipPath><linearGradient id="linear-gradient" x1="-49.08" y1="119.39" x2="-39.61" y2="119.39" gradientTransform="translate(197.8 -12.98) rotate(18.81)" gradientUnits="userSpaceOnUse"><stop offset="0" stop-color="#e9a78a"/><stop offset="1" stop-color="#e9a78a" stop-opacity="0"/></linearGradient><linearGradient id="linear-gradient-2" x1="170.23" y1="87.28" x2="162.36" y2="87.38" gradientTransform="translate(-122.33 34.93) rotate(-12.18)" xlink:href="#linear-gradient"/></defs><g id="Layer_2" data-name="Layer 2"><g id="OBJECTS"><circle class="cls-2" cx="88.82" cy="88.82" r="88.82" transform="matrix(0.16, -0.99, 0.99, 0.16, -13.23, 162.06)"/><g class="cls-3"><path class="cls-4" d="M118.65,127.33l-31,10.11L58.44,126.35s13.5-5.17,13.84-5.28c.33-.95,1-3.8,1-11.5,0-1,0-2.06,0-3.21h28.92c0,1.34,0,2.56,0,3.67,0,7.36.65,10.11,1,11C103.4,121.18,118.65,127.33,118.65,127.33Z"/><path class="cls-5" d="M113,77.8s4.65-2,7.39,1.66-2.7,15.43-11.9,11.58"/><path class="cls-6" d="M113,77.8s4.65-2,7.39,1.66-2.7,15.43-11.9,11.58"/><path class="cls-5" d="M62.2,78.13s-4.39-2.49-7.54.8.9,15.64,10.49,12.88"/><path class="cls-7" d="M62.2,78.13s-4.39-2.49-7.54.8.9,15.64,10.49,12.88"/><path class="cls-8" d="M102.13,106.36c0,1.34,0,2.56,0,3.67-3.75,3.89-8.4,6.54-14,6.54-6,0-10.92-2.85-14.84-7,0-1,0-2.06,0-3.21Z"/><path class="cls-9" d="M113.12,58.47C109,40.71,87.43,43.54,87.43,43.54S65.9,40.71,61.73,58.47c0,0-2.23,20.59,1,31.62s11.38,25.15,24.7,25.15,21.25-15,24.48-26S113.12,58.47,113.12,58.47Z"/><path class="cls-10" d="M88.09,80.41S87.9,87.2,85,90.27a29.28,29.28,0,0,0,3,2.12"/><path class="cls-11" d="M74.85,82.88c.14,1.37,1.05,2.4,2,2.3s1.65-1.29,1.51-2.66-1-2.41-2-2.31S74.71,81.5,74.85,82.88Z"/><path class="cls-12" d="M80.57,75.05s-7.77-2.47-12.49.73C68.08,75.78,73.3,71,80.57,75.05Z"/><path class="cls-13" d="M77,92.61c-.12,1.93-2.71,3.34-5.8,3.16s-5.49-1.9-5.38-3.83,2.71-3.34,5.8-3.16S77.14,90.68,77,92.61Z"/><path class="cls-11" d="M100.34,82.94c-.1,1.38-1,2.44-2,2.37s-1.69-1.24-1.59-2.62,1-2.44,2-2.37S100.44,81.56,100.34,82.94Z"/><path class="cls-12" d="M95.14,74.7s7.83-2.21,12.43,1.14C107.57,75.84,102.52,70.88,95.14,74.7Z"/><path class="cls-13" d="M97.39,92.92c.17,1.92,2.81,3.26,5.89,3s5.44-2.07,5.26-4-2.81-3.26-5.89-3S97.22,91,97.39,92.92Z"/><path class="cls-14" d="M131,182.21c4.33-20.73,12-48.89,12-48.89l-33.53-9.53-.64.45a36.34,36.34,0,0,1-42.85-.83h0l-34.49,9.91s7.64,28.16,12,48.89Z"/><path class="cls-14" d="M44.37,182.21c.38-1.65.62-2.75.62-2.75L31.67,133.27s-8.15,2.39-13,22c-6.95,20.85-8,26-8,26a4.52,4.52,0,0,0,.52.94Z"/><path class="cls-14" d="M164.74,182.21c-.76-2.6-3.14-10.49-8.62-26.93-4.89-19.62-13.16-22-13.16-22l-13.21,46.14s.21,1.1.55,2.75Z"/><path class="cls-2" d="M92.07,102.62c-.52,1-1.78,2-4.69,2.09-3.15,0-4.43-1.16-4.92-2.32a3.93,3.93,0,0,1-.26-2.06H92.37A3.63,3.63,0,0,1,92.07,102.62Z"/><path class="cls-15" d="M67.87,129.94a8.15,8.15,0,0,0,2.9,1.78,25.9,25.9,0,0,0,3.22,1.2A49.81,49.81,0,0,0,81,134.37a59.14,59.14,0,0,0,7.73.85A21.35,21.35,0,0,0,96.15,134a53.39,53.39,0,0,0,7.79-3.61c.34-.19,0-.69-.31-.52-4.47,2.18-9,4.54-14.14,4.62a47.59,47.59,0,0,1-7.62-.72,60,60,0,0,1-6.78-1.28,27,27,0,0,1-3.62-1.22,18.74,18.74,0,0,1-1.75-.84,9.7,9.7,0,0,0-1.64-.83c-.22-.06-.33.21-.21.36Z"/><path class="cls-15" d="M113.86,184.21h0a9.64,9.64,0,0,0,9.64-9.64V158.42l-19.28.84v15.31A9.63,9.63,0,0,0,113.86,184.21Z"/><path class="cls-16" d="M16.58,175.32c1.61-4.64,3.61-9.15,5.56-13.66,1.85-4.27,3.59-8.56,5.07-13,1.25-3.75,2.57-7.76,5.48-10.58a16.53,16.53,0,0,1,5.86-3.38c2.3-.88,4.64-1.68,7-2.47q8.1-2.73,16.33-5a.3.3,0,0,0-.16-.58c-5,1.39-10,2.9-14.93,4.55q-3.65,1.22-7.25,2.53a22.83,22.83,0,0,0-6,2.91c-3.2,2.41-4.85,6.18-6.13,9.85-.71,2-1.35,4.13-2.1,6.16-.86,2.35-1.8,4.67-2.76,7a154.25,154.25,0,0,0-6,15.66s0,0,0,0Z"/><path class="cls-16" d="M109.74,127.51a14.67,14.67,0,0,1,6.37,2,36.86,36.86,0,0,0,6.09,2.72c2.37.73,4.8,1.28,7.16,2.06s4.86,1.73,7.23,2.74c1.16.5,2.32,1,3.47,1.54a14.65,14.65,0,0,1,3.16,1.66,7,7,0,0,1,1.73,3.28c.41,1.16.75,2.34,1.06,3.53,1.25,4.76,2,9.65,3.43,14.35,1.63,5.22,4.23,10.11,5.23,15.51.08.45.77.26.69-.18-.91-5-3.17-9.49-4.8-14.22s-2.38-9.85-3.63-14.76c-.31-1.23-.66-2.45-1.05-3.65a17.05,17.05,0,0,0-1.33-3.32,5.26,5.26,0,0,0-2.38-1.94c-1.16-.55-2.34-1.08-3.51-1.6a97.45,97.45,0,0,0-14.54-5.08,31.06,31.06,0,0,1-3.9-1.25c-1.22-.51-2.38-1.13-3.55-1.73a15.15,15.15,0,0,0-6.93-2.11.22.22,0,0,0,0,.43Z"/><path class="cls-17" d="M113.68,63.73a111.91,111.91,0,0,1,.73,14.21l-.81,1.37.07-8.2a10.61,10.61,0,0,0-1.35-5.25l-5.38-9.64a16.23,16.23,0,0,1-6.14,3.23A25.47,25.47,0,0,1,90.37,60c-2.52-.37-5.56-1.05-7.55-2.75a14.24,14.24,0,0,1-2-2.13c-7,6.29-11.34,4.81-15.6,4.3-.44,3.78-4,19.38-4,19.38V75L64.6,52.53l22.82-2,22.81,2Z"/><path class="cls-18" d="M61.16,78.82s3.59-17.87,4-21.65c4.72.56,9.57,2.34,18-6.63,14.28,1.94,23.78,3.4,23.78,3.4l5.38,9.65a10.68,10.68,0,0,1,1.35,5.24l-.07,10.48a5.7,5.7,0,0,1,4.1-2c1.4-3.93,4.1-23.52,3.59-25.34-2.69-3.63-7.9-11.4-13.44-13.06S86.18,32.31,79.13,33.3a25.39,25.39,0,0,0-15.91,8.6c-3.57,4.13-4.64,4.63-4.64,4.63s.48.49,2.58-.42a28.66,28.66,0,0,0-5.42,10.13c-.25,1.12,1.78,21.08,1.78,21.08S58.88,77.06,61.16,78.82Z"/><path class="cls-18" d="M80.68,41S75,48.3,82.82,55c2,1.7,5,2.38,7.55,2.75a25.48,25.48,0,0,0,10.43-.57c9.26-2.54,14.49-12.94,11.93-21.91A16.35,16.35,0,0,0,111,31.56c-.5,2-.76,3.27-2.31,4.84.5-1.4.76-5.79-.42-7.77-1.93,2.65-6.76,6-13.18,6.12,1.3-.83,1.72-3.39,1.68-4.92-.59,1.32-8.62,3.43-10.71,3.74"/><path class="cls-19" d="M113.38,42.39a18.3,18.3,0,0,1-2.55,7.66,16.42,16.42,0,0,1-5.8,5.82,18.06,18.06,0,0,1-7.92,2.37,28.33,28.33,0,0,1-4.12,0c-.68-.08-1.36-.19-2-.28s-1.34-.27-2-.42c.68,0,1.36.1,2,.16s1.35,0,2,0a26.82,26.82,0,0,0,4-.24A19.6,19.6,0,0,0,104.51,55a17.53,17.53,0,0,0,5.67-5.37,19.89,19.89,0,0,0,1.9-3.48A20.58,20.58,0,0,0,113.38,42.39Z"/><path class="cls-19" d="M105.41,45.78A19.61,19.61,0,0,1,98.1,55a14.12,14.12,0,0,1-11.6,1.92c.51,0,1,0,1.49,0a7.11,7.11,0,0,0,1.46,0l1.45-.13,1.42-.3a16.29,16.29,0,0,0,5.22-2.3,22.76,22.76,0,0,0,4.34-3.75A32.14,32.14,0,0,0,105.41,45.78Z"/><path class="cls-19" d="M75.9,44.68a11.69,11.69,0,0,0,.74,5.06A6.8,6.8,0,0,0,78,51.84a13.63,13.63,0,0,0,2,1.74,5.94,5.94,0,0,1-2.53-1.18,5.47,5.47,0,0,1-1-1,6.76,6.76,0,0,1-.72-1.25,6.55,6.55,0,0,1-.5-2.78A6.3,6.3,0,0,1,75.9,44.68Z"/><path class="cls-19" d="M80,42.39a10.71,10.71,0,0,0-1,5.34,8.93,8.93,0,0,0,.61,2.61c.13.44.37.83.55,1.27s.46.81.67,1.27a10.23,10.23,0,0,1-1.08-1,7.39,7.39,0,0,1-.85-1.22A6.78,6.78,0,0,1,78,47.81a6.89,6.89,0,0,1,.41-3A6.22,6.22,0,0,1,80,42.39Z"/></g></g></g></svg>