<svg xmlns="http://www.w3.org/2000/svg" xmlns:xlink="http://www.w3.org/1999/xlink" viewBox="0 0 177.65 182.33"><defs><style>.cls-1,.cls-10,.cls-12{fill:none;}.cls-2{clip-path:url(#clip-path);}.cls-3{fill:#fff;}.cls-4{fill:#ebb294;}.cls-5{fill:#f0c8aa;}.cls-6{fill:url(#linear-gradient);}.cls-7{fill:url(#linear-gradient-2);}.cls-14,.cls-8{fill:#e0a286;}.cls-8{opacity:0.45;}.cls-9{fill:#eabea0;}.cls-10{stroke:#df8d6d;stroke-width:0.94px;}.cls-10,.cls-12{stroke-linecap:round;stroke-linejoin:round;}.cls-11{fill:#3b3b3b;}.cls-12{stroke:#7b2a13;}.cls-13{fill:#ebb391;}.cls-15{fill:#8e9950;}.cls-16{fill:#b94949;opacity:0.3;}.cls-17{fill:#7b2a13;}.cls-18{fill:#681f0e;}.cls-19{fill:#7d843e;}.cls-20{fill:#767c3e;}</style><clipPath id="clip-path"><circle class="cls-1" cx="88.82" cy="88.82" r="88.82" transform="translate(-36.79 88.82) rotate(-45)"/></clipPath><linearGradient id="linear-gradient" x1="-68.13" y1="-3.31" x2="-58.86" y2="-3.31" gradientTransform="translate(176.78 113.99) rotate(18.81)" gradientUnits="userSpaceOnUse"><stop offset="0" stop-color="#e9a78a"/><stop offset="1" stop-color="#e9a78a" stop-opacity="0"/></linearGradient><linearGradient id="linear-gradient-2" x1="161.85" y1="175.27" x2="154.13" y2="175.37" gradientTransform="translate(-131.2 -48.17) rotate(-12.18)" xlink:href="#linear-gradient"/></defs><g id="Layer_2" data-name="Layer 2"><g id="OBJECTS"><g class="cls-2"><circle class="cls-3" cx="88.82" cy="88.82" r="88.82" transform="translate(-36.79 88.82) rotate(-45)"/><path class="cls-4" d="M119,131.14,113.38,133,93,139.62l-4.37,1.43-3.94-1.5-19.59-7.43L60,130.18l4.65-1.78,3.24-1.24c2.9-1.11,5.53-2.12,5.67-2.16.3-.86.88-3.35.94-9.83,0-1.35,0-2.87,0-4.58h28.34c-.06,2.5,0,4.58,0,6.32.13,5.2.64,7.31.91,8.09.13,0,2.74,1.09,5.76,2.3l2.1.85Z"/><path class="cls-5" d="M113.51,82.6s4.55-1.93,7.24,1.63-2.64,15.12-11.66,11.35"/><path class="cls-6" d="M113.51,82.6s4.55-1.93,7.24,1.63-2.64,15.12-11.66,11.35"/><path class="cls-5" d="M63.71,82.93s-4.3-2.44-7.38.79S57.21,99,66.6,96.33"/><path class="cls-7" d="M63.71,82.93s-4.3-2.44-7.38.79S57.21,99,66.6,96.33"/><path class="cls-8" d="M102.84,116.91c-3.13,2.24-7.34,3.63-13.16,3.63-7,0-11.78-2.13-15.15-5.37,0-1.35,0-2.87,0-4.58h28.34C102.78,113.09,102.79,115.17,102.84,116.91Z"/><path class="cls-9" d="M113.61,63.67C109.52,46.27,88.43,49,88.43,49S67.34,46.27,63.26,63.67c0,0-2.19,20.17,1,31s6.27,24.64,24.19,24.64c18.91,0,20.83-14.66,24-25.47S113.61,63.67,113.61,63.67Z"/><path class="cls-10" d="M89.08,85.17s-.19,6.64-3,9.66a29.47,29.47,0,0,0,3,2.08"/><path class="cls-11" d="M76.11,87.58c.14,1.35,1,2.36,2,2.26s1.62-1.27,1.48-2.61-1-2.36-2-2.26S76,86.24,76.11,87.58Z"/><path class="cls-12" d="M81.71,79.91s-7.61-2.42-12.24.72C69.47,80.63,74.59,75.93,81.71,79.91Z"/><path class="cls-13" d="M78.24,97.12c-.11,1.89-2.65,3.27-5.68,3.09s-5.38-1.86-5.27-3.75S70,93.19,73,93.37,78.36,95.23,78.24,97.12Z"/><path class="cls-11" d="M101.08,87.64C101,89,100.13,90,99.18,90s-1.66-1.21-1.57-2.56,1-2.39,1.91-2.32S101.18,86.3,101.08,87.64Z"/><path class="cls-12" d="M96,79.57s7.67-2.17,12.18,1.12C108.17,80.69,103.22,75.83,96,79.57Z"/><path class="cls-13" d="M98.19,97.42c.18,1.89,2.76,3.19,5.78,2.92s5.32-2,5.15-3.91-2.75-3.19-5.77-2.92S98,95.54,98.19,97.42Z"/><path class="cls-14" d="M113.47,132.89l-.09.09-5.53,5.79s-9.75.58-14.81.85c-1.59.09-2.72.15-2.94.15s-2.68-.1-5.37-.22l-19.59-7.43c-.8-1.21-1.54-2.29-1.54-2.29l1.08-1.43,3.24-1.24c4.34,3.42,18.74,12.13,41.59.14l2.1.85Z"/><path class="cls-15" d="M131.67,182.33c4.3-20,11.17-45.32,11.17-45.32L110,127.67l-.63.44a35.6,35.6,0,0,1-42-.81L33.59,137s6.87,25.33,11.17,45.32Z"/><path class="cls-16" d="M62.6,83.86,63.91,73.3s10,.3,11.87-9.78c1.54,2.93,6.5,3.76,8.25,4.07,1.9,2.53,6.14,4.14,9.88,3.41-6.26-4-5-8.6-5-8.6s1.14,5.43,12.94,7.95c-3.49-3-4.23-5.77-4.23-5.77S102,70,111.2,70.49c2.65,6.19,2.13,13.56,2.13,13.56l1.79-13s8.24,2,1.15-4.3-6.68-5.62-6.68-5.62L92.9,55.76s-1.11-2.56-12.81-1.1-7.73-6.75-11.3.73-2.93,4.88-2.93,4.88l-2.52,4.55L60.06,68.4v3.82Z"/><path class="cls-17" d="M62.6,83.86l.67-12.25s8.67.93,12-10.53c2.08,2.68,3.14,5,9.89,5.77,3.57,3,4.14,3,8.7,4.15-2.52-1.87-4.94-6.18-4.38-9.92,1.45,3.58,7.29,8.7,12.34,9.27-3.25-2.68-3.5-7.32-3.5-7.32,4.23,3.89,9.91,6.43,13.41,6.43,1.41,4.38,1.55,14.59,1.55,14.59s2.86-3.22,5.37-1.34c2-5.53,4.23-17.08,4.1-19.39s-2-8.9-2-8.9a6.94,6.94,0,0,0,5.33,1.34,17.8,17.8,0,0,1-6.59-7.93c-1.1-3-5.38-14.51-19.39-14.14,4.64-.37,5.67-1.83,5.67-1.83a11.66,11.66,0,0,1-7.8-.37c-4.08-1.71-11.46-3.29-17,1.71.61-1.53,1.83-4.27,4.15-5.37-4.09,2-7.93,3.3-10.92,11.34-4-2-11.83-2-16.58,6.95-1.53,3.11-4.09,15.06-9.27,17,2.87-.36,7.2-1.58,7.62-3.17-1,3.66-3.84,9.27-4.94,9.64,2.69-.19,4.76-3.24,4.76-3.24s-1.13,9,2.36,16.07C59.34,82.08,60.47,81.73,62.6,83.86Z"/><path class="cls-18" d="M93.91,71a14.06,14.06,0,0,1-8.14-3.11,11.33,11.33,0,0,1-2.85-3.42,10.72,10.72,0,0,1-1.27-4.2,18.06,18.06,0,0,0,1.92,3.8,13.7,13.7,0,0,0,2.82,3.06,19.14,19.14,0,0,0,3.53,2.27A26.37,26.37,0,0,0,93.91,71Z"/><path class="cls-18" d="M86.16,62.4a25.55,25.55,0,0,0,3,5.06,12.45,12.45,0,0,0,2,2A13.71,13.71,0,0,0,93.69,71a6.53,6.53,0,0,1-3-.89,8.5,8.5,0,0,1-2.35-2,10.77,10.77,0,0,1-1.54-2.69A9,9,0,0,1,86.16,62.4Z"/><path class="cls-18" d="M91.79,60.92A22.81,22.81,0,0,0,96,66.57a14.79,14.79,0,0,0,2.72,2.15,23.06,23.06,0,0,0,3.17,1.63,9.72,9.72,0,0,1-3.53-1,11.15,11.15,0,0,1-1.61-.92,14.89,14.89,0,0,1-1.43-1.2,13.24,13.24,0,0,1-2.25-2.92A11,11,0,0,1,91.79,60.92Z"/><path class="cls-18" d="M75.32,61.08a14.8,14.8,0,0,1-2.16,5.48,11.74,11.74,0,0,1-4.36,4.09,10.54,10.54,0,0,1-5.86,1.22l-.75,0-.74-.14L60,71.39c-.94-.31-1.86-.67-2.76-1,1,.16,1.91.43,2.86.57l1.43.14.71.08.71,0,1.41-.06,1.38-.27a6.83,6.83,0,0,0,1.33-.41l.66-.24.61-.34a12.58,12.58,0,0,0,4.2-3.66A21,21,0,0,0,75.32,61.08Z"/><path class="cls-18" d="M98.37,63A23.38,23.38,0,0,0,102,65.75a21.22,21.22,0,0,0,4,2,20.64,20.64,0,0,0,4.3,1.13,32,32,0,0,0,4.52.36c-.75.15-1.51.3-2.28.38a15,15,0,0,1-2.32,0,16.08,16.08,0,0,1-8.65-3.23A13.32,13.32,0,0,1,98.37,63Z"/><path class="cls-3" d="M95.23,105.26a5.09,5.09,0,0,1-.79,1.58c-.22.36-.46.73-.73,1.09-1.42,1.88-3.52,3.67-5.83,3.6a7.11,7.11,0,0,1-5.47-3.43,10.11,10.11,0,0,1-.64-1,10.24,10.24,0,0,1-.48-1.14c-.36-1.12-.16-2.11,1.12-2.35a32.12,32.12,0,0,1,9.69-.17C93,103.51,95.65,103.79,95.23,105.26Z"/><path class="cls-15" d="M46.83,182.33l0-.11L33.79,137s-8,2.34-12.77,21.57c-4.76,14.27-6.7,21-7.43,23.8Z"/><path class="cls-15" d="M163.41,182.33c-1.19-3.92-3.52-11.36-7.67-23.8C151,139.3,143,137,143,137l-13.06,45.26,0,.11Z"/><path class="cls-19" d="M65,132.23c3.75,4.1,9.43,6,14.79,6.77a76.29,76.29,0,0,0,9.43.6,40.17,40.17,0,0,0,9.36-.66,25.88,25.88,0,0,0,8.74-3.78c.26-.18,0-.6-.25-.43a26.11,26.11,0,0,1-7.69,3.45,33.59,33.59,0,0,1-8.94.86c-5.92,0-12-.19-17.59-2.33A22.43,22.43,0,0,1,65.28,132a.19.19,0,0,0-.27.27Z"/><circle class="cls-20" cx="87.33" cy="153.17" r="2.17"/><circle class="cls-20" cx="87.45" cy="166.42" r="2.17"/><circle class="cls-20" cx="87.26" cy="177.54" r="2.17"/></g></g></g></svg>