<svg xmlns="http://www.w3.org/2000/svg" xmlns:xlink="http://www.w3.org/1999/xlink" viewBox="0 0 177.65 187.67"><defs><style>.cls-1,.cls-16{fill:none;}.cls-2{clip-path:url(#clip-path);}.cls-3{fill:#fff;}.cls-4{fill:#e27769;}.cls-11,.cls-17,.cls-5{opacity:0.45;}.cls-6{fill:#d8665d;}.cls-7{fill:#f4bdb5;}.cls-8{fill:#391620;}.cls-9{fill:#30121c;}.cls-10{fill:#e59d80;}.cls-11{fill:#dd9176;}.cls-12{fill:#f2ac8c;}.cls-13{fill:#d3927a;}.cls-14{fill:#3a3130;}.cls-15{fill:#381c0e;stroke:#381c0e;stroke-width:0.53px;}.cls-15,.cls-16{stroke-linecap:round;stroke-linejoin:round;}.cls-16{stroke:#e18f6d;stroke-width:0.26px;}.cls-17{fill:#d3856a;}.cls-18{fill:#632418;}</style><clipPath id="clip-path"><circle class="cls-1" cx="88.82" cy="88.82" r="88.82" transform="translate(-13.35 161.89) rotate(-80.57)"/></clipPath></defs><g id="Layer_2" data-name="Layer 2"><g id="OBJECTS"><g class="cls-2"><circle class="cls-3" cx="88.82" cy="88.82" r="88.82" transform="translate(-13.35 161.89) rotate(-80.57)"/><path class="cls-4" d="M174.47,187.67a203.94,203.94,0,0,0-15.93-39.08A24.18,24.18,0,0,0,152,141a111.79,111.79,0,0,0-22.57-13.19c-17.51-7.63-42.09-12.77-68.87-1.38l-.47.2C57.52,127.68,45,133,36.5,137.2a21.83,21.83,0,0,0-10.83,11.92,243.8,243.8,0,0,0-11,38.55Z"/><g class="cls-5"><path class="cls-6" d="M46.73,158.65l-1,11.59c-.17,1.9-.34,3.82-.58,5.75a40.82,40.82,0,0,1-1.08,5.9,24,24,0,0,1-1.4-5.9,29.62,29.62,0,0,1-.09-6,25.42,25.42,0,0,1,1.24-6A16.08,16.08,0,0,1,46.73,158.65Z"/></g><g class="cls-5"><path class="cls-6" d="M144.71,181.72a45.36,45.36,0,0,1,.95-6.89c.47-2.24,1-4.43,1.62-6.61s1.23-4.33,1.9-6.49,1.37-4.33,2.27-6.53a26.66,26.66,0,0,1,.16,7,41.36,41.36,0,0,1-1.29,6.83,48.63,48.63,0,0,1-2.3,6.53A37.27,37.27,0,0,1,144.71,181.72Z"/></g><path class="cls-7" d="M124.14,176.1a1.61,1.61,0,0,0-.75,1.31,2,2,0,0,0,.64,1.45,2.07,2.07,0,0,0,1.62.69,1.53,1.53,0,0,0,1.21-1,3.12,3.12,0,0,0-.22-2.16c-.07-.2-.58,0-.51.13a3.85,3.85,0,0,1,.33,1.7,1.21,1.21,0,0,1-.65,1,1,1,0,0,1-.69-.12,3,3,0,0,1-.59-.41,1.9,1.9,0,0,1-.62-1.18,1.26,1.26,0,0,1,.56-1.23c.08-.05.13-.16,0-.22a.41.41,0,0,0-.37,0Z"/><path class="cls-7" d="M51.27,139.34a1,1,0,0,0-.71,1.38,2,2,0,0,0,1.4,1.16,2,2,0,0,0,1.78-.38,1.49,1.49,0,0,0,.54-1.53,1.37,1.37,0,0,0-1.48-1c-.11,0-.27.07-.29.19s.14.15.23.14a1,1,0,0,1,1,.61,1.12,1.12,0,0,1-.17,1.2,1.48,1.48,0,0,1-2.3-.26,1.1,1.1,0,0,1-.24-.74.53.53,0,0,1,.36-.5c.09,0,.24-.11.21-.22s-.21-.11-.3-.09Z"/><path class="cls-7" d="M137.7,149a1.28,1.28,0,0,0-1,1.08,1.55,1.55,0,0,0,.7,1.37,1.59,1.59,0,0,0,1.64.07,1.3,1.3,0,0,0,.75-1.17,1.28,1.28,0,0,0-1-1.17.48.48,0,0,0-.35.06c-.05,0-.18.14-.06.16a1.11,1.11,0,0,1,.55,1.84c-.68.66-1.65-.27-1.76-1,0-.38.13-.95.56-1,.06,0,.25-.08.22-.18s-.22,0-.28,0Z"/><path class="cls-7" d="M98.9,158.42a1,1,0,0,0-1.17.81,1.35,1.35,0,0,0,.74,1.21,1.94,1.94,0,0,0,1.66.17,1.35,1.35,0,0,0,.9-1.07,1,1,0,0,0-1-1,.35.35,0,0,0-.33.14c0,.11.05.17.14.17a.75.75,0,0,1,.63.63.88.88,0,0,1-.4.85,1.39,1.39,0,0,1-1.81-.73.73.73,0,0,1,0-.56c0-.1.17-.29.3-.27a.42.42,0,0,0,.36-.09c.07-.08.06-.19,0-.21Z"/><path class="cls-7" d="M54.94,168.12c-.9-.37-2.1.61-1.69,1.57a1.42,1.42,0,0,0,1,.8,1.57,1.57,0,0,0,1.41-.4,1.76,1.76,0,0,0,.54-1.47c0-.22-.54-.09-.51.13.07.63-.36,1.48-1.06,1.43a1,1,0,0,1-.83-1.42.65.65,0,0,1,.82-.31c.2.08.59-.21.3-.33Z"/><path class="cls-7" d="M23.51,160.2a1,1,0,0,0-1,.91,1.25,1.25,0,0,0,.91,1.19,3.8,3.8,0,0,0,.88.23,3.72,3.72,0,0,0,1.15.07,1.49,1.49,0,0,0,1.39-1.11c.11-.73-.62-1.14-1.18-1.38-.21-.09-.59.21-.3.33s.83.39.95.81a.82.82,0,0,1-.65,1,3.31,3.31,0,0,1-1.59-.13,1.32,1.32,0,0,1-1-.68.77.77,0,0,1,0-.56c0-.09.12-.28.24-.28a.34.34,0,0,0,.33-.16.15.15,0,0,0-.15-.2Z"/><path class="cls-7" d="M162.55,169.26a1.08,1.08,0,0,0-1.4.79,1.33,1.33,0,0,0,.9,1.43,2.37,2.37,0,0,0,1.95.05,1.31,1.31,0,0,0,.71-1.61,1.35,1.35,0,0,0-1.83-.68.19.19,0,0,0-.12.27c.07.11.25.08.35,0a.85.85,0,0,1,1,.4.93.93,0,0,1-.26,1.2,1.54,1.54,0,0,1-1.28.08,1.29,1.29,0,0,1-1-.89c-.07-.33.22-.9.61-.73.22.09.58-.22.29-.35Z"/><path class="cls-8" d="M79.54,27.12l.17,0L80.78,27l.63-.07.9-.07.86,0,.28,0a61.29,61.29,0,0,1,17,1.87c.59.14,1.18.3,1.76.48h0a27,27,0,0,1,7.17,3.42c7.13,4.85,11.5,11.92,14,19.8a1,1,0,0,0,.06.16l.36,1.19c.12.41.24.83.35,1.26s.19.71.28,1.06c.13.53.25,1.08.37,1.62.09.38.17.77.24,1.15s.17.87.24,1.3.13.72.19,1.08l.06.39c0,.36.11.72.16,1.08v0c0,.35.1.68.14,1,0,.13,0,.26,0,.4,0,.4.09.8.13,1.19s.07.69.1,1l.15,1.82.06,1.09v0c0,.42.05.83.06,1.25s0,.73,0,1.1c0,.2,0,.4,0,.6a1.34,1.34,0,0,1,0,.2c0,.24,0,.47,0,.71,0,1.1,0,2.19,0,3.28l0,1.31a2.81,2.81,0,0,0,0,.29c0,.54,0,1.09-.07,1.62v0c0,.56-.06,1.11-.1,1.66a128.61,128.61,0,0,1-4,24.47c-6,4.21-31.4,1.93-31.4,1.93l-.35-7.37s17.81-13.64,20.17-20.87c12.63-.12,8.12-9.11,5.51-12l-.07-.08-.11-.1a.47.47,0,0,0-.14-.14,2.55,2.55,0,0,0-.24-.23h0a1.34,1.34,0,0,0-.22-.16l-.1-.07C92.28,62,85.57,38.61,85.57,38.61l-.77,0c-7.66.26-12.44,5-15.37,11.64v0C65.56,59,64.91,71,65.15,80.32A19.52,19.52,0,0,0,78.86,98.46v8.42c-21,4.73-28.14-2.63-28.14-2.63-2.36-18.72-1.55-32.69.55-43.15.15-.75.31-1.47.47-2.17.09-.42.19-.83.29-1.23q.33-1.35.69-2.61.15-.59.33-1.14a5.76,5.76,0,0,1,.18-.59c.17-.59.36-1.16.55-1.71L54,51c.12-.32.23-.63.34-.94.25-.7.52-1.38.78-2a.49.49,0,0,0,0-.11l.36-.85c.4-1,.8-1.85,1.22-2.7.11-.24.23-.49.35-.73l0-.1Z"/><path class="cls-9" d="M114.92,64.78c3.39,20.94-5.89,39.86-20.73,42.27s-29.63-12.62-33-33.56a53.53,53.53,0,0,1-.7-9.09h0c.14-14.59,6.45-27,16.17-31.55a19.79,19.79,0,0,1,5-1.59h0l.22,0c14.71-2.38,29.36,12.35,32.92,33C114.86,64.4,114.89,64.59,114.92,64.78Z"/><path class="cls-10" d="M128.8,127.63S113,155.92,88.18,152.09s-27.64-25.7-27.64-25.7,13.47-4.5,15.26-8.48c1.66-3.75.54-10.72-.61-15.63-.74-3.19-1.5-5.51-1.5-5.51l33.47-21a162.64,162.64,0,0,0-1.81,25.08c.11,4,.11,8.34.77,11.65a5.62,5.62,0,0,0,2.38,3.58A154.44,154.44,0,0,0,128.8,127.63Z"/><path class="cls-11" d="M107.16,75.8a162.64,162.64,0,0,0-1.81,25.08A21.82,21.82,0,0,1,90.74,108c-5.63.31-11-1.83-15.55-5.73-.74-3.19-1.5-5.51-1.5-5.51Z"/><path class="cls-12" d="M89.45,106.42c-9.67.52-18.55-6.15-23.94-16.62A50.12,50.12,0,0,1,60.2,69.53a52.74,52.74,0,0,1,.28-9.11h0c1.68-14.49,9.28-26.13,19.44-29.64a19.62,19.62,0,0,1,5.17-1h0l.23,0c14.88-.8,27.87,15.41,29.21,36.32,0,.18,0,.37,0,.57s0,.56,0,.83C115.42,88.24,104.27,105.62,89.45,106.42Z"/><path class="cls-13" d="M94.18,135.6c1.22-1.85,3.85-2.45,5.91-2.66a35.56,35.56,0,0,1,7.57.36,66,66,0,0,0,15.07,0c.15,0,.55-.26.22-.22a64.14,64.14,0,0,1-13.43.15c-4-.37-8-1.16-11.92,0a6.84,6.84,0,0,0-3.92,2.45c-.05.07.41,0,.5-.08Z"/><path class="cls-13" d="M86,135.08c-1.32-1.89-4-2.5-6.18-2.7-3.11-.29-6.21.33-9.28.72-.29,0-.39.43,0,.39a45.81,45.81,0,0,1,8.74-.76c2.15.15,5,.68,6.3,2.58.13.2.62,0,.46-.23Z"/><path class="cls-14" d="M70,70.31c.23,1.36,1.2,2.32,2.17,2.15s1.55-1.4,1.32-2.75-1.21-2.32-2.17-2.15S69.8,69,70,70.31Z"/><path class="cls-14" d="M97.49,69c0,1.38.73,2.51,1.71,2.54s1.8-1.07,1.83-2.44-.72-2.51-1.7-2.54S97.53,67.67,97.49,69Z"/><path class="cls-15" d="M106.64,59.9c-4.77-1.36-8.53-.83-12,1.28l-.15,0c1.57-2.75,8.44-2.88,12.2-1.26"/><path class="cls-15" d="M65.18,63.18c3.45-1.94,8.18-3.37,11.7-1.38l-.19.09c-3.82-1.26-8.07-.18-11.41,1.29"/><path class="cls-3" d="M88.7,87.84a28.41,28.41,0,0,0,7.24-1.24,9.46,9.46,0,0,1,.22,1.61c.24,4.73-3,8.74-7.3,9S81,93.71,80.72,89a9.71,9.71,0,0,1,.08-1.8A27.44,27.44,0,0,0,88.7,87.84Z"/><path class="cls-16" d="M87.26,68.62s.07,7.54-3,11.08a31.9,31.9,0,0,0,3.47,2.23"/><path class="cls-10" d="M76.55,82.58c.06,2-2.46,3.67-5.63,3.77s-5.8-1.43-5.86-3.41,2.46-3.67,5.63-3.77S76.49,80.59,76.55,82.58Z"/><path class="cls-10" d="M111.46,81.13c.06,2-2.45,3.65-5.6,3.75s-5.77-1.42-5.83-3.39,2.45-3.65,5.6-3.75S111.4,79.16,111.46,81.13Z"/><path class="cls-17" d="M114.6,67.43C99,63.33,91.41,50.49,88.45,43.84a5.89,5.89,0,0,0-7.24-3.18c-14.46,4.9-19.3,28.73-15.68,43.62l0,5.52A50.12,50.12,0,0,1,60.2,69.53a52.74,52.74,0,0,1,.28-9.11h0c1.68-14.49,9.28-26.13,19.44-29.64a19.62,19.62,0,0,1,5.17-1h0l.23,0c14.88-.8,27.87,15.41,29.21,36.32,0,.18,0,.37,0,.57S114.6,67.16,114.6,67.43Z"/><path class="cls-8" d="M65.17,89.13C61,70.58,66.73,38.52,85.57,38.61c0,0,6.71,23.42,29.73,28.15,2,1,10.93,14.6,10.93,14.6.56-8.82.19-18.71-2.43-27.67-4.25-14.5-15.31-25-30.32-26.69a62.35,62.35,0,0,0-13.77.1A29.89,29.89,0,0,0,57.15,43.49,69.88,69.88,0,0,0,51.27,61.1a25.63,25.63,0,0,0,13.9,28Z"/><path class="cls-12" d="M120.82,67.33c1.62,4.57-.71,10.93-3.64,12s-6.64.07-6.35-5.51c.25-4.68-.57-9.11,2.37-10.16S119.19,62.77,120.82,67.33Z"/><path class="cls-18" d="M79.7,37.56a12.93,12.93,0,0,0-8,3.11,32,32,0,0,0-5.66,6.67,43.06,43.06,0,0,0-6.41,15.4,40,40,0,0,0-.81,9.51s.05,0,.05,0a43.89,43.89,0,0,1,3-16.58A40.36,40.36,0,0,1,71,41.55a13.8,13.8,0,0,1,8.76-3.94s0,0,0,0Z"/><path class="cls-18" d="M89.65,34.9c-.73-.27-.57,1.5-.55,1.82a15.85,15.85,0,0,0,1,4,40.09,40.09,0,0,0,3.35,7.18A52.82,52.82,0,0,0,103.56,60a64.15,64.15,0,0,0,7.06,5.56s.08,0,.06,0c-8-5.84-15.26-12.82-19.32-22a38.65,38.65,0,0,1-1.52-4.05,13.73,13.73,0,0,1-.55-2.21c0-.24-.26-2.58.33-2.39,0,0,.06,0,0,0Z"/><path class="cls-18" d="M92.55,35.08a14,14,0,0,0,2.83,5.21,53.61,53.61,0,0,0,4,4.52,28.59,28.59,0,0,0,9.83,6.76,18.13,18.13,0,0,0,6.63,1.27s.08-.06.09-.06c-8.42-.05-15-5.93-20.06-12a14.73,14.73,0,0,1-3.28-5.69s0,0,0,0Z"/><path class="cls-18" d="M97.3,36.27a22.55,22.55,0,0,0,19.49,10.87s.06,0,0,0A23.45,23.45,0,0,1,97.31,36.26Z"/><path class="cls-18" d="M90.93,36.4a51.53,51.53,0,0,0,19.12,21.06,48.62,48.62,0,0,0,7.07,3.63h0A51.93,51.93,0,0,1,95,43.24a51.39,51.39,0,0,1-4-6.82l-.06,0Z"/><path class="cls-18" d="M118.45,82.68A54.66,54.66,0,0,1,115.63,93a66.78,66.78,0,0,1-4.78,9.62s0,0,0,0a45.79,45.79,0,0,0,4.83-9.58,54.11,54.11,0,0,0,2.78-10.38s0,0,0,0Z"/><path class="cls-18" d="M122.09,76.9a59.88,59.88,0,0,1-3.75,23c-.78,2.07-1.69,4.06-2.66,6,0,0,0,0,0,0a58.12,58.12,0,0,0,6.41-29s0,0,0,0Z"/><path class="cls-18" d="M82.11,33.73a20,20,0,0,0-9,2.05,21.16,21.16,0,0,0-7.82,6.79,55.46,55.46,0,0,0-9,20.63A52.75,52.75,0,0,0,55.11,76s.08,0,.08,0A60.51,60.51,0,0,1,59,55a57.75,57.75,0,0,1,4.59-9.42,27,27,0,0,1,6.74-8,20,20,0,0,1,11.78-3.83l0,0Z"/><path class="cls-18" d="M54.16,60.31A57.75,57.75,0,0,1,64.87,39a64.29,64.29,0,0,1,4.54-5.08s-.06,0-.08,0A55.77,55.77,0,0,0,56.19,53.79a57.08,57.08,0,0,0-2.07,6.5l0,0Z"/><path class="cls-18" d="M57.58,46.65c.76-1.22,1.44-2.47,2.26-3.65s1.69-2.31,2.61-3.4l-.06,0a32.11,32.11,0,0,0-2.67,3.37,24.46,24.46,0,0,0-2.19,3.68s0,0,0,0Z"/><path class="cls-18" d="M55.3,99.62A19.69,19.69,0,0,1,54,96c-.38-1.26-.7-2.53-1-3.82a43.29,43.29,0,0,1-.81-7.71s0,0,0,0A41.41,41.41,0,0,0,53,92.22c.26,1.25.56,2.49.93,3.7s.92,2.47,1.29,3.73l0,0Z"/><path class="cls-18" d="M62.21,104.92a44.74,44.74,0,0,1-5.44-19.75s-.09,0-.09,0a42,42,0,0,0,5.48,19.75s.05,0,.05,0Z"/><path class="cls-18" d="M69.76,105.83c-2.52-1.57-4-4.26-5.28-6.82a59.92,59.92,0,0,1-4.06-9.21s-.08,0-.09,0a50.2,50.2,0,0,0,4.09,9.36c1.31,2.54,2.77,5.14,5.27,6.69,0,0,.1,0,.07,0Z"/><path class="cls-18" d="M72.74,104.55a35.79,35.79,0,0,1-6.68-8.46s-.06,0-.06,0a30.89,30.89,0,0,0,6.67,8.45s.07,0,.07,0Z"/><path class="cls-18" d="M54.25,86.18a56.42,56.42,0,0,1-.33-14.57s-.06,0-.06,0a52.16,52.16,0,0,0,.36,14.55l0,0Z"/><path class="cls-18" d="M61.3,89.58A58,58,0,0,1,58,70.15s0,0,0,0a54.19,54.19,0,0,0,3.38,19.44Z"/><path class="cls-18" d="M62.67,82.42a55.09,55.09,0,0,1-.36-10.27h0a55,55,0,0,0,.36,10.26Z"/><path class="cls-18" d="M53.25,62.4c-1.61,6.46-1.13,13.29-.41,19.84h0c-.49-6.63-1.2-13.29.4-19.83Z"/><path class="cls-18" d="M64.44,58.91a38.34,38.34,0,0,0-1,9.48h0a38.19,38.19,0,0,1,1-9.47Z"/><path class="cls-18" d="M64,56.19a53.53,53.53,0,0,0-.82,17h0a56.2,56.2,0,0,1,.79-17Z"/><path class="cls-18" d="M92.07,39.93a78,78,0,0,0,7.79,12.51h0a81.13,81.13,0,0,1-7.78-12.51Z"/></g></g></g></svg>